<svg width="24" height="24" viewBox="0 0 24 24" fill="none" xmlns="http://www.w3.org/2000/svg">
<path d="M2.02542 6.12665L0.00505245 23.0996C-0.01927 23.3041 0.0449533 23.5086 0.181943 23.6625C0.318932 23.8164 0.514818 23.9045 0.720855 23.9045H23.2793C23.4852 23.9045 23.6813 23.8164 23.8182 23.6625C23.9552 23.5087 24.019 23.3032 23.9951 23.0996L21.9744 6.12665C21.9317 5.76432 21.6241 5.49105 21.2591 5.49105H18.0291C17.6708 2.45728 15.0876 0.0954895 11.9591 0.0954895C8.83067 0.0954895 6.24747 2.45778 5.88907 5.49105H2.74163C2.37558 5.49105 2.06834 5.76422 2.02542 6.12665ZM11.9586 1.53654C14.2911 1.53654 16.2241 3.25499 16.5726 5.49105H7.34459C7.69295 3.25499 9.62618 1.53654 11.9586 1.53654ZM6.56266 6.932H17.3541H20.6187L22.4673 22.4636H1.53174L3.38054 6.932H6.56266Z" fill="black"/>
</svg>
